<svg xmlns="http://www.w3.org/2000/svg" version="1.1" xmlns:xlink="http://www.w3.org/1999/xlink" xmlns:svgjs="http://svgjs.com/svgjs" width="1000" height="1000"><g transform="matrix(2.710027100271003,0,0,2.710027100271003,0,0)"><svg xmlns="http://www.w3.org/2000/svg" version="1.1" xmlns:xlink="http://www.w3.org/1999/xlink" xmlns:svgjs="http://svgjs.com/svgjs" width="369" height="369"><svg xmlns="http://www.w3.org/2000/svg" width="369" height="369" viewBox="0 0 369 369">
  <g id="Group_53" data-name="Group 53" transform="translate(1809 1386)">
    <g id="Group_52" data-name="Group 52">
      <rect id="Rectangle_157" data-name="Rectangle 157" width="369" height="369" transform="translate(-1809 -1386)" fill="none"></rect>
      <g id="Group_51" data-name="Group 51" transform="translate(-1739 -1359.999)" opacity="0">
        <path id="Path_64" data-name="Path 64" d="M165.729,407.287h0a10.349,10.349,0,0,1,0-14.637L370.993,187.38a10.354,10.354,0,1,1,14.643,14.643L180.366,407.287a10.349,10.349,0,0,1-14.637,0" transform="translate(-162.697 -180.861)" fill="#f7f7f7"></path>
        <path id="Path_65" data-name="Path 65" d="M191.017,294.077h0a10.349,10.349,0,0,1,0-14.636l52.551-52.551a10.354,10.354,0,1,1,14.643,14.643l-52.551,52.55a10.349,10.349,0,0,1-14.637,0" transform="translate(-36.974 15.565)" fill="#f7f7f7"></path>
        <path id="Path_66" data-name="Path 66" d="M180.438,351.281h0a10.349,10.349,0,0,1,0-14.636L300.773,216.31a10.35,10.35,0,0,1,14.636,14.637L195.075,351.281a10.349,10.349,0,0,1-14.637,0" transform="translate(-89.569 -37.024)" fill="#f7f7f7"></path>
        <path id="Path_67" data-name="Path 67" d="M173.575,367.824h0a10.355,10.355,0,0,1,0-14.643L317.307,209.449a10.354,10.354,0,1,1,14.643,14.643L188.2,367.824a10.355,10.355,0,0,1-14.643,0" transform="translate(-123.69 -71.141)" fill="#f7f7f7"></path>
        <path id="Path_68" data-name="Path 68" d="M326.8,204.546h0a10.349,10.349,0,0,1,0,14.637L183.366,362.622a10.354,10.354,0,1,1-14.643-14.643l143.44-143.433a10.349,10.349,0,0,1,14.637,0" transform="translate(-147.818 -95.51)" fill="#f7f7f7"></path>
        <path id="Path_69" data-name="Path 69" d="M166.5,347.01h0a10.349,10.349,0,0,1,0-14.636L312.074,186.8a10.354,10.354,0,1,1,14.643,14.643L181.139,347.01a10.349,10.349,0,0,1-14.637,0" transform="translate(-158.849 -183.764)" fill="#f7f7f7"></path>
      </g>
    </g>
    <g id="Dark_-_Logo_Mark" data-name="Dark - Logo Mark" transform="translate(-1737.995 -1358.834)">
      <path id="Path_29" data-name="Path 29" d="M165.282,765.187h0a10.264,10.264,0,0,1,0-14.516L368.853,547.1a10.269,10.269,0,1,1,14.522,14.523L179.8,765.192a10.263,10.263,0,0,1-14.516,0" transform="translate(-162.275 -540.633)" fill="#020c35"></path>
      <path id="Path_30" data-name="Path 30" d="M190.57,653.241h0a10.264,10.264,0,0,1,0-14.516l52.117-52.117a10.269,10.269,0,1,1,14.523,14.523l-52.118,52.116a10.263,10.263,0,0,1-14.516,0" transform="translate(-37.797 -346.159)" fill="#020c35"></path>
      <path id="Path_31" data-name="Path 31" d="M179.991,709.889h0a10.264,10.264,0,0,1,0-14.516L299.333,576.03a10.266,10.266,0,1,1,14.522,14.516L194.507,709.889a10.264,10.264,0,0,1-14.516,0" transform="translate(-89.871 -398.228)" fill="#020c35"></path>
      <path id="Path_32" data-name="Path 32" d="M173.128,726.236h0a10.27,10.27,0,0,1,0-14.522L315.687,569.168a10.269,10.269,0,1,1,14.523,14.523L187.656,726.236a10.263,10.263,0,0,1-14.516,0" transform="translate(-123.654 -432.005)" fill="#020c35"></path>
      <path id="Path_33" data-name="Path 33" d="M325.048,564.265h0a10.264,10.264,0,0,1,0,14.516L182.8,721.037a10.269,10.269,0,1,1-14.522-14.523L310.533,564.265a10.263,10.263,0,0,1,14.516,0" transform="translate(-147.544 -456.134)" fill="#020c35"></path>
      <path id="Path_34" data-name="Path 34" d="M166.055,705.408h0a10.263,10.263,0,0,1,0-14.516l144.37-144.376a10.269,10.269,0,1,1,14.523,14.523L180.571,705.409a10.263,10.263,0,0,1-14.516,0" transform="translate(-158.47 -543.508)" fill="#020c35"></path>
    </g>
  </g>
</svg></svg></g></svg>