<svg xmlns="http://www.w3.org/2000/svg" width="38.327" height="53.132" viewBox="0 0 38.327 53.132">
  <g id="Group_57" data-name="Group 57" transform="translate(0)">
    <path id="Path_29" data-name="Path 29" d="M162.783,581.424h0a1.733,1.733,0,0,1,0-2.451L197.156,544.6a1.734,1.734,0,1,1,2.452,2.452l-34.374,34.373a1.733,1.733,0,0,1-2.451,0" transform="translate(-162.275 -543.508)" fill="#020c35"/>
    <path id="Path_30" data-name="Path 30" d="M188.071,595.359h0a1.733,1.733,0,0,1,0-2.451l8.8-8.8a1.734,1.734,0,1,1,2.452,2.452l-8.8,8.8a1.733,1.733,0,0,1-2.451,0" transform="translate(-162.275 -543.508)" fill="#020c35"/>
    <path id="Path_31" data-name="Path 31" d="M177.492,596.132h0a1.733,1.733,0,0,1,0-2.451l20.151-20.151a1.733,1.733,0,1,1,2.452,2.451l-20.152,20.151a1.733,1.733,0,0,1-2.451,0" transform="translate(-162.275 -543.508)" fill="#020c35"/>
    <path id="Path_32" data-name="Path 32" d="M170.629,593.189h0a1.734,1.734,0,0,1,0-2.452L194.7,566.668a1.734,1.734,0,1,1,2.452,2.452l-24.07,24.069a1.733,1.733,0,0,1-2.451,0" transform="translate(-162.275 -543.508)" fill="#020c35"/>
    <path id="Path_33" data-name="Path 33" d="M192.247,561.766h0a1.733,1.733,0,0,1,0,2.451l-24.019,24.02a1.734,1.734,0,1,1-2.452-2.452l24.02-24.019a1.733,1.733,0,0,1,2.451,0" transform="translate(-162.275 -543.508)" fill="#020c35"/>
    <path id="Path_34" data-name="Path 34" d="M163.556,570.845h0a1.733,1.733,0,0,1,0-2.451l24.377-24.378a1.734,1.734,0,1,1,2.452,2.452l-24.378,24.377a1.733,1.733,0,0,1-2.451,0" transform="translate(-162.275 -543.508)" fill="#020c35"/>
  </g>
</svg>
