<svg xmlns="http://www.w3.org/2000/svg" width="282.231" height="61.728" viewBox="0 0 282.231 61.728">
  <g id="Group_55" data-name="Group 55" transform="translate(0)">
    <g id="Dark_-_Logo_Type" data-name="Dark - Logo Type" transform="translate(48.666 8.991)">
      <path id="Path_18" data-name="Path 18" d="M303.492,562.242A16.167,16.167,0,1,0,319.663,578.4a16.167,16.167,0,0,0-16.171-16.158m0,27.487a11.325,11.325,0,0,1,0-22.65c.309,0,.628.01.928.038a.17.17,0,0,1,.066.009c.244.019.5.047.731.085.037.009.084.009.122.018a11.062,11.062,0,0,1,3.065.975,1.173,1.173,0,0,1,.15.075c.263.122.507.263.75.4a11.326,11.326,0,0,1-5.812,21.047" transform="translate(-210.941 -552.499)" fill="#020c35" fill-rule="evenodd"/>
      <path id="Path_19" data-name="Path 19" d="M314.817,589.064a11.327,11.327,0,0,1-11.323,11.325l0,4.847a16.168,16.168,0,0,0,16.172-16.172Z" transform="translate(-210.941 -552.499)" fill="#020c35" fill-rule="evenodd"/>
      <rect id="Rectangle_12" data-name="Rectangle 12" width="4.847" height="11.329" transform="translate(103.876 25.91)" fill="#020c35"/>
      <rect id="Rectangle_13" data-name="Rectangle 13" width="2.104" height="4.85" transform="translate(90.777 47.883)" fill="#020c35"/>
      <rect id="Rectangle_14" data-name="Rectangle 14" width="5.149" height="26.392" transform="translate(29.228)" fill="#020c35"/>
      <path id="Path_20" data-name="Path 20" d="M303.492,562.242A16.167,16.167,0,1,0,319.663,578.4a16.167,16.167,0,0,0-16.171-16.158m0,27.487a11.325,11.325,0,0,1,0-22.65c.309,0,.628.01.928.038a.17.17,0,0,1,.066.009c.244.019.5.047.731.085.037.009.084.009.122.018a11.062,11.062,0,0,1,3.065.975,1.173,1.173,0,0,1,.15.075c.263.122.507.263.75.4a11.326,11.326,0,0,1-5.812,21.047" transform="translate(-210.941 -552.499)" fill="#020c35" fill-rule="evenodd"/>
      <path id="Path_21" data-name="Path 21" d="M314.817,589.064a11.327,11.327,0,0,1-11.323,11.325l0,4.847a16.168,16.168,0,0,0,16.172-16.172Z" transform="translate(-210.941 -552.499)" fill="#020c35" fill-rule="evenodd"/>
      <rect id="Rectangle_15" data-name="Rectangle 15" width="4.847" height="11.329" transform="translate(103.876 25.91)" fill="#020c35"/>
      <rect id="Rectangle_16" data-name="Rectangle 16" width="2.104" height="4.85" transform="translate(90.777 47.883)" fill="#020c35"/>
      <path id="Path_22" data-name="Path 22" d="M245.317,578.554a17.217,17.217,0,1,0,.022.886c0-.3-.007-.592-.022-.886m-17.179,12.9a12.014,12.014,0,1,1,12.013-12.014,12.014,12.014,0,0,1-12.013,12.014" transform="translate(-210.941 -552.499)" fill="#020c35" fill-rule="evenodd"/>
      <path id="Path_23" data-name="Path 23" d="M283.388,576.763a16.246,16.246,0,0,0-.346-1.661,17.2,17.2,0,1,0-3.278,15.162L275.73,587A12.01,12.01,0,0,1,255,583.223l28.585-3a17.062,17.062,0,0,0-.077-2.58c-.031-.3-.07-.588-.115-.878m-28.931,1.343a12.013,12.013,0,0,1,23.339-2.453Z" transform="translate(-210.941 -552.499)" fill="#020c35" fill-rule="evenodd"/>
      <path id="Path_24" data-name="Path 24" d="M340.312,563.249A16.163,16.163,0,0,0,324.15,579.41h4.837a11.327,11.327,0,0,1,11.323-11.325Z" transform="translate(-210.941 -552.499)" fill="#020c35" fill-rule="evenodd"/>
      <rect id="Rectangle_17" data-name="Rectangle 17" width="4.837" height="16.782" transform="translate(113.208 26.913)" fill="#020c35"/>
      <path id="Path_25" data-name="Path 25" d="M374.66,576.763c-.09-.563-.2-1.119-.346-1.661a17.2,17.2,0,1,0-3.278,15.162L367,587a12.01,12.01,0,0,1-20.735-3.777l28.585-3a17.063,17.063,0,0,0-.077-2.58c-.031-.3-.07-.588-.115-.878m-28.931,1.343a12.013,12.013,0,0,1,23.339-2.453Z" transform="translate(-210.941 -552.499)" fill="#020c35" fill-rule="evenodd"/>
      <path id="Path_26" data-name="Path 26" d="M412.81,576.763a16.246,16.246,0,0,0-.346-1.661,17.2,17.2,0,1,0-3.278,15.162L405.152,587a12.01,12.01,0,0,1-20.735-3.777l28.585-3a17.063,17.063,0,0,0-.077-2.58c-.032-.3-.07-.588-.115-.878m-28.931,1.343a12.013,12.013,0,0,1,23.339-2.453Z" transform="translate(-210.941 -552.499)" fill="#020c35" fill-rule="evenodd"/>
      <path id="Path_27" data-name="Path 27" d="M443.769,582.333a7.708,7.708,0,0,0-1.99-2.526,11.091,11.091,0,0,0-2.869-1.706,26.048,26.048,0,0,0-3.34-1.113c-1.157-.3-2.352-.567-3.552-.789s-2.359-.465-3.457-.724c-.892-.184-1.749-.4-2.547-.63a9.915,9.915,0,0,1-2.025-.817,4.145,4.145,0,0,1-1.272-1.055,2.078,2.078,0,0,1-.423-1.3,3.262,3.262,0,0,1,1.783-2.9,10.64,10.64,0,0,1,5.5-1.174,18.679,18.679,0,0,1,6.079,1.056,19.419,19.419,0,0,1,5.823,3.276l.539.436,2.271-4.536-.357-.282a23.626,23.626,0,0,0-7.037-3.9,23.162,23.162,0,0,0-7.409-1.237c-3.625,0-6.522.839-8.611,2.493a8.349,8.349,0,0,0-3.209,6.884,6.652,6.652,0,0,0,1.263,4.133,10.011,10.011,0,0,0,3.029,2.63,15.887,15.887,0,0,0,3.9,1.563c1.373.355,2.667.649,3.845.874.8.146,1.791.32,3.024.531a21.478,21.478,0,0,1,3.4.87,8.51,8.51,0,0,1,2.707,1.49,2.712,2.712,0,0,1,.994,2.2,4.276,4.276,0,0,1-2.033,3.726,10.025,10.025,0,0,1-5.741,1.465A21.009,21.009,0,0,1,424.462,590a23.529,23.529,0,0,1-5.853-3.236l-.537-.412-2.145,4.287-.121.238.366.282a26.775,26.775,0,0,0,6.992,3.833,25.573,25.573,0,0,0,8.934,1.463,15.8,15.8,0,0,0,4.973-.753A11.573,11.573,0,0,0,441,593.523a10.238,10.238,0,0,0,2.572-3.364,9.929,9.929,0,0,0,.932-4.314,7.889,7.889,0,0,0-.733-3.512" transform="translate(-210.941 -552.499)" fill="#020c35"/>
      <path id="Path_28" data-name="Path 28" d="M443.769,582.333a7.708,7.708,0,0,0-1.99-2.526,11.091,11.091,0,0,0-2.869-1.706,26.048,26.048,0,0,0-3.34-1.113c-1.157-.3-2.352-.567-3.552-.789s-2.359-.465-3.457-.724c-.892-.184-1.749-.4-2.547-.63a9.915,9.915,0,0,1-2.025-.817,4.145,4.145,0,0,1-1.272-1.055,2.078,2.078,0,0,1-.423-1.3,3.262,3.262,0,0,1,1.783-2.9,10.64,10.64,0,0,1,5.5-1.174,18.679,18.679,0,0,1,6.079,1.056,19.419,19.419,0,0,1,5.823,3.276l.539.436,2.271-4.536-.357-.282a23.626,23.626,0,0,0-7.037-3.9,23.162,23.162,0,0,0-7.409-1.237c-3.625,0-6.522.839-8.611,2.493a8.349,8.349,0,0,0-3.209,6.884,6.652,6.652,0,0,0,1.263,4.133,10.011,10.011,0,0,0,3.029,2.63,15.887,15.887,0,0,0,3.9,1.563c1.373.355,2.667.649,3.845.874.8.146,1.791.32,3.024.531a21.478,21.478,0,0,1,3.4.87,8.51,8.51,0,0,1,2.707,1.49,2.712,2.712,0,0,1,.994,2.2,4.276,4.276,0,0,1-2.033,3.726,10.025,10.025,0,0,1-5.741,1.465A21.009,21.009,0,0,1,424.462,590a23.529,23.529,0,0,1-5.853-3.236l-.537-.412-2.145,4.287-.121.238.366.282a26.775,26.775,0,0,0,6.992,3.833,25.573,25.573,0,0,0,8.934,1.463,15.8,15.8,0,0,0,4.973-.753A11.573,11.573,0,0,0,441,593.523a10.238,10.238,0,0,0,2.572-3.364,9.929,9.929,0,0,0,.932-4.314,7.889,7.889,0,0,0-.733-3.512" transform="translate(-210.941 -552.499)" fill="#020c35"/>
    </g>
    <g id="Dark_-_Logo_Mark" data-name="Dark - Logo Mark">
      <path id="Path_29" data-name="Path 29" d="M162.783,581.424h0a1.733,1.733,0,0,1,0-2.451L197.156,544.6a1.734,1.734,0,1,1,2.452,2.452l-34.374,34.373a1.733,1.733,0,0,1-2.451,0" transform="translate(-162.275 -543.508)" fill="#020c35"/>
      <path id="Path_30" data-name="Path 30" d="M188.071,595.359h0a1.733,1.733,0,0,1,0-2.451l8.8-8.8a1.734,1.734,0,1,1,2.452,2.452l-8.8,8.8a1.733,1.733,0,0,1-2.451,0" transform="translate(-162.275 -543.508)" fill="#020c35"/>
      <path id="Path_31" data-name="Path 31" d="M177.492,596.132h0a1.733,1.733,0,0,1,0-2.451l20.151-20.151a1.733,1.733,0,1,1,2.452,2.451l-20.152,20.151a1.733,1.733,0,0,1-2.451,0" transform="translate(-162.275 -543.508)" fill="#020c35"/>
      <path id="Path_32" data-name="Path 32" d="M170.629,593.189h0a1.734,1.734,0,0,1,0-2.452L194.7,566.668a1.734,1.734,0,1,1,2.452,2.452l-24.07,24.069a1.733,1.733,0,0,1-2.451,0" transform="translate(-162.275 -543.508)" fill="#020c35"/>
      <path id="Path_33" data-name="Path 33" d="M192.247,561.766h0a1.733,1.733,0,0,1,0,2.451l-24.019,24.02a1.734,1.734,0,1,1-2.452-2.452l24.02-24.019a1.733,1.733,0,0,1,2.451,0" transform="translate(-162.275 -543.508)" fill="#020c35"/>
      <path id="Path_34" data-name="Path 34" d="M163.556,570.845h0a1.733,1.733,0,0,1,0-2.451l24.377-24.378a1.734,1.734,0,1,1,2.452,2.452l-24.378,24.377a1.733,1.733,0,0,1-2.451,0" transform="translate(-162.275 -543.508)" fill="#020c35"/>
    </g>
  </g>
</svg>
