<svg xmlns="http://www.w3.org/2000/svg" width="281.565" height="61.737" viewBox="0 0 281.565 61.737">
  <g id="Group_56" data-name="Group 56" transform="translate(0 0.001)">
    <g id="White_-_Logo_Type" data-name="White - Logo Type" transform="translate(48 9)">
      <path id="Path_1" data-name="Path 1" d="M303.914,202.5a16.167,16.167,0,1,0,16.171,16.162A16.167,16.167,0,0,0,303.914,202.5m0,27.487a11.325,11.325,0,1,1,0-22.65c.309,0,.628.01.928.038a.167.167,0,0,1,.066.009c.244.019.5.047.731.085.037.009.084.009.122.018a11.062,11.062,0,0,1,3.065.975,1.168,1.168,0,0,1,.15.075c.263.122.507.263.75.4a11.326,11.326,0,0,1-5.812,21.047" transform="translate(-211.363 -192.756)" fill="#fff" fill-rule="evenodd"/>
      <path id="Path_2" data-name="Path 2" d="M315.239,229.32a11.327,11.327,0,0,1-11.323,11.325l0,4.847a16.168,16.168,0,0,0,16.172-16.172Z" transform="translate(-211.363 -192.756)" fill="#fff" fill-rule="evenodd"/>
      <rect id="Rectangle_6" data-name="Rectangle 6" width="4.847" height="11.329" transform="translate(103.876 25.909)" fill="#fff"/>
      <rect id="Rectangle_7" data-name="Rectangle 7" width="2.104" height="4.85" transform="translate(90.778 47.882)" fill="#fff"/>
      <rect id="Rectangle_8" data-name="Rectangle 8" width="5.149" height="26.392" transform="translate(29.229)" fill="#fff"/>
      <path id="Path_3" data-name="Path 3" d="M303.914,202.5a16.167,16.167,0,1,0,16.171,16.162A16.167,16.167,0,0,0,303.914,202.5m0,27.487a11.325,11.325,0,1,1,0-22.65c.309,0,.628.01.928.038a.167.167,0,0,1,.066.009c.244.019.5.047.731.085.037.009.084.009.122.018a11.062,11.062,0,0,1,3.065.975,1.168,1.168,0,0,1,.15.075c.263.122.507.263.75.4a11.326,11.326,0,0,1-5.812,21.047" transform="translate(-211.363 -192.756)" fill="#fff" fill-rule="evenodd"/>
      <path id="Path_4" data-name="Path 4" d="M315.239,229.32a11.327,11.327,0,0,1-11.323,11.325l0,4.847a16.168,16.168,0,0,0,16.172-16.172Z" transform="translate(-211.363 -192.756)" fill="#fff" fill-rule="evenodd"/>
      <rect id="Rectangle_9" data-name="Rectangle 9" width="4.847" height="11.329" transform="translate(103.876 25.909)" fill="#fff"/>
      <rect id="Rectangle_10" data-name="Rectangle 10" width="2.104" height="4.85" transform="translate(90.778 47.882)" fill="#fff"/>
      <path id="Path_5" data-name="Path 5" d="M245.739,218.81a17.217,17.217,0,1,0,.022.886c0-.3-.007-.592-.022-.886m-17.179,12.9a12.016,12.016,0,1,1,0,.006" transform="translate(-211.363 -192.756)" fill="#fff" fill-rule="evenodd"/>
      <path id="Path_6" data-name="Path 6" d="M283.81,217.02a16.245,16.245,0,0,0-.346-1.661,17.2,17.2,0,1,0-3.278,15.162l-4.034-3.262a12.01,12.01,0,0,1-20.735-3.777l28.585-3a17.075,17.075,0,0,0-.077-2.58c-.032-.3-.07-.587-.115-.878m-28.931,1.342a12.013,12.013,0,0,1,23.339-2.452Z" transform="translate(-211.363 -192.756)" fill="#fff" fill-rule="evenodd"/>
      <path id="Path_7" data-name="Path 7" d="M340.734,203.505a16.163,16.163,0,0,0-16.162,16.161h4.837a11.327,11.327,0,0,1,11.323-11.325Z" transform="translate(-211.363 -192.756)" fill="#fff" fill-rule="evenodd"/>
      <rect id="Rectangle_11" data-name="Rectangle 11" width="4.837" height="16.782" transform="translate(113.208 26.912)" fill="#fff"/>
      <path id="Path_8" data-name="Path 8" d="M375.082,217.02a16.245,16.245,0,0,0-.346-1.661,17.2,17.2,0,1,0-3.278,15.162l-4.034-3.262a12.01,12.01,0,0,1-20.735-3.777l28.585-3a17.063,17.063,0,0,0-.077-2.58c-.032-.3-.07-.587-.115-.878m-28.931,1.342a12.013,12.013,0,0,1,23.339-2.452Z" transform="translate(-211.363 -192.756)" fill="#fff" fill-rule="evenodd"/>
      <path id="Path_9" data-name="Path 9" d="M413.233,217.02c-.091-.563-.206-1.119-.346-1.661a17.2,17.2,0,1,0-3.279,15.162l-4.034-3.262a12.009,12.009,0,0,1-20.734-3.777l28.584-3a16.94,16.94,0,0,0-.076-2.58c-.032-.3-.071-.587-.115-.878M384.3,218.362a12.013,12.013,0,0,1,23.339-2.452Z" transform="translate(-211.363 -192.756)" fill="#fff" fill-rule="evenodd"/>
      <path id="Path_10" data-name="Path 10" d="M444.191,222.589a7.708,7.708,0,0,0-1.99-2.526,11.092,11.092,0,0,0-2.869-1.706,26.056,26.056,0,0,0-3.34-1.113c-1.157-.3-2.352-.567-3.552-.789s-2.359-.465-3.457-.724c-.892-.184-1.749-.4-2.547-.63a9.915,9.915,0,0,1-2.025-.817,4.144,4.144,0,0,1-1.272-1.055,2.077,2.077,0,0,1-.423-1.3,3.262,3.262,0,0,1,1.783-2.9,10.64,10.64,0,0,1,5.5-1.174,18.678,18.678,0,0,1,6.079,1.056,19.418,19.418,0,0,1,5.823,3.276l.539.436,2.271-4.536-.357-.282a23.6,23.6,0,0,0-7.037-3.9,23.135,23.135,0,0,0-7.409-1.238c-3.625,0-6.522.839-8.611,2.493a8.349,8.349,0,0,0-3.209,6.884,6.653,6.653,0,0,0,1.263,4.133,10.012,10.012,0,0,0,3.029,2.63,15.852,15.852,0,0,0,3.9,1.563c1.373.355,2.667.649,3.845.874.8.146,1.791.32,3.024.531a21.478,21.478,0,0,1,3.4.87,8.51,8.51,0,0,1,2.707,1.49,2.712,2.712,0,0,1,.994,2.2,4.276,4.276,0,0,1-2.033,3.726,10.024,10.024,0,0,1-5.741,1.465,21.01,21.01,0,0,1-7.592-1.272,23.526,23.526,0,0,1-5.853-3.236l-.537-.412-2.145,4.287-.121.238.366.282a26.776,26.776,0,0,0,6.992,3.833,25.571,25.571,0,0,0,8.934,1.463,15.794,15.794,0,0,0,4.973-.753,11.571,11.571,0,0,0,3.929-2.173,10.238,10.238,0,0,0,2.572-3.364,9.928,9.928,0,0,0,.932-4.314,7.89,7.89,0,0,0-.733-3.512" transform="translate(-211.363 -192.756)" fill="#fff"/>
      <path id="Path_11" data-name="Path 11" d="M444.191,222.589a7.708,7.708,0,0,0-1.99-2.526,11.092,11.092,0,0,0-2.869-1.706,26.056,26.056,0,0,0-3.34-1.113c-1.157-.3-2.352-.567-3.552-.789s-2.359-.465-3.457-.724c-.892-.184-1.749-.4-2.547-.63a9.915,9.915,0,0,1-2.025-.817,4.144,4.144,0,0,1-1.272-1.055,2.077,2.077,0,0,1-.423-1.3,3.262,3.262,0,0,1,1.783-2.9,10.64,10.64,0,0,1,5.5-1.174,18.678,18.678,0,0,1,6.079,1.056,19.418,19.418,0,0,1,5.823,3.276l.539.436,2.271-4.536-.357-.282a23.6,23.6,0,0,0-7.037-3.9,23.135,23.135,0,0,0-7.409-1.238c-3.625,0-6.522.839-8.611,2.493a8.349,8.349,0,0,0-3.209,6.884,6.653,6.653,0,0,0,1.263,4.133,10.012,10.012,0,0,0,3.029,2.63,15.852,15.852,0,0,0,3.9,1.563c1.373.355,2.667.649,3.845.874.8.146,1.791.32,3.024.531a21.478,21.478,0,0,1,3.4.87,8.51,8.51,0,0,1,2.707,1.49,2.712,2.712,0,0,1,.994,2.2,4.276,4.276,0,0,1-2.033,3.726,10.024,10.024,0,0,1-5.741,1.465,21.01,21.01,0,0,1-7.592-1.272,23.526,23.526,0,0,1-5.853-3.236l-.537-.412-2.145,4.287-.121.238.366.282a26.776,26.776,0,0,0,6.992,3.833,25.571,25.571,0,0,0,8.934,1.463,15.794,15.794,0,0,0,4.973-.753,11.571,11.571,0,0,0,3.929-2.173,10.238,10.238,0,0,0,2.572-3.364,9.928,9.928,0,0,0,.932-4.314,7.89,7.89,0,0,0-.733-3.512" transform="translate(-211.363 -192.756)" fill="#fff"/>
    </g>
    <g id="White_-_Logo_Mark" data-name="White - Logo Mark">
      <path id="Path_64" data-name="Path 64" d="M163.205,221.68h0a1.733,1.733,0,0,1,0-2.451l34.373-34.374a1.734,1.734,0,1,1,2.452,2.452L165.656,221.68a1.733,1.733,0,0,1-2.451,0" transform="translate(-162.697 -183.764)" fill="#fff"/>
      <path id="Path_65" data-name="Path 65" d="M188.493,235.615h0a1.733,1.733,0,0,1,0-2.451l8.8-8.8a1.734,1.734,0,1,1,2.452,2.452l-8.8,8.8a1.733,1.733,0,0,1-2.451,0" transform="translate(-162.697 -183.764)" fill="#fff"/>
      <path id="Path_66" data-name="Path 66" d="M177.914,236.388h0a1.733,1.733,0,0,1,0-2.451l20.151-20.151a1.733,1.733,0,0,1,2.451,2.451l-20.151,20.151a1.733,1.733,0,0,1-2.451,0" transform="translate(-162.697 -183.764)" fill="#fff"/>
      <path id="Path_67" data-name="Path 67" d="M171.051,233.445h0a1.734,1.734,0,0,1,0-2.452l24.069-24.069a1.734,1.734,0,1,1,2.452,2.452L173.5,233.445a1.734,1.734,0,0,1-2.452,0" transform="translate(-162.697 -183.764)" fill="#fff"/>
      <path id="Path_68" data-name="Path 68" d="M192.669,202.022h0a1.733,1.733,0,0,1,0,2.451l-24.019,24.02a1.734,1.734,0,1,1-2.452-2.452l24.02-24.019a1.733,1.733,0,0,1,2.451,0" transform="translate(-162.697 -183.764)" fill="#fff"/>
      <path id="Path_69" data-name="Path 69" d="M163.979,211.1h0a1.733,1.733,0,0,1,0-2.451l24.377-24.378a1.734,1.734,0,1,1,2.452,2.452L166.43,211.1a1.733,1.733,0,0,1-2.451,0" transform="translate(-162.697 -183.764)" fill="#fff"/>
    </g>
  </g>
</svg>
