<svg xmlns="http://www.w3.org/2000/svg" width="369" height="369" viewBox="0 0 369 369">
  <g id="Group_52" data-name="Group 52" transform="translate(1809 1386)">
    <rect id="Rectangle_157" data-name="Rectangle 157" width="369" height="369" transform="translate(-1809 -1386)" fill="none"/>
    <g id="Group_51" data-name="Group 51" transform="translate(-1739 -1359.999)">
      <path id="Path_64" data-name="Path 64" d="M165.729,407.287h0a10.349,10.349,0,0,1,0-14.637L370.993,187.38a10.354,10.354,0,1,1,14.643,14.643L180.366,407.287a10.349,10.349,0,0,1-14.637,0" transform="translate(-162.697 -180.861)" fill="#f7f7f7"/>
      <path id="Path_65" data-name="Path 65" d="M191.017,294.077h0a10.349,10.349,0,0,1,0-14.636l52.551-52.551a10.354,10.354,0,1,1,14.643,14.643l-52.551,52.55a10.349,10.349,0,0,1-14.637,0" transform="translate(-36.974 15.565)" fill="#f7f7f7"/>
      <path id="Path_66" data-name="Path 66" d="M180.438,351.281h0a10.349,10.349,0,0,1,0-14.636L300.773,216.31a10.35,10.35,0,0,1,14.636,14.637L195.075,351.281a10.349,10.349,0,0,1-14.637,0" transform="translate(-89.569 -37.024)" fill="#f7f7f7"/>
      <path id="Path_67" data-name="Path 67" d="M173.575,367.824h0a10.355,10.355,0,0,1,0-14.643L317.307,209.449a10.354,10.354,0,1,1,14.643,14.643L188.2,367.824a10.355,10.355,0,0,1-14.643,0" transform="translate(-123.69 -71.141)" fill="#f7f7f7"/>
      <path id="Path_68" data-name="Path 68" d="M326.8,204.546h0a10.349,10.349,0,0,1,0,14.637L183.366,362.622a10.354,10.354,0,1,1-14.643-14.643l143.44-143.433a10.349,10.349,0,0,1,14.637,0" transform="translate(-147.818 -95.51)" fill="#f7f7f7"/>
      <path id="Path_69" data-name="Path 69" d="M166.5,347.01h0a10.349,10.349,0,0,1,0-14.636L312.074,186.8a10.354,10.354,0,1,1,14.643,14.643L181.139,347.01a10.349,10.349,0,0,1-14.637,0" transform="translate(-158.849 -183.764)" fill="#f7f7f7"/>
    </g>
  </g>
</svg>
