<svg xmlns="http://www.w3.org/2000/svg" width="38.326" height="53.133" viewBox="0 0 38.326 53.133">
  <g id="Group_58" data-name="Group 58" transform="translate(0 0.001)">
    <path id="Path_64" data-name="Path 64" d="M163.205,221.68h0a1.733,1.733,0,0,1,0-2.451l34.373-34.374a1.734,1.734,0,1,1,2.452,2.452L165.656,221.68a1.733,1.733,0,0,1-2.451,0" transform="translate(-162.697 -183.764)" fill="#f7f7f7"/>
    <path id="Path_65" data-name="Path 65" d="M188.493,235.615h0a1.733,1.733,0,0,1,0-2.451l8.8-8.8a1.734,1.734,0,1,1,2.452,2.452l-8.8,8.8a1.733,1.733,0,0,1-2.451,0" transform="translate(-162.697 -183.764)" fill="#f7f7f7"/>
    <path id="Path_66" data-name="Path 66" d="M177.914,236.388h0a1.733,1.733,0,0,1,0-2.451l20.151-20.151a1.733,1.733,0,0,1,2.451,2.451l-20.151,20.151a1.733,1.733,0,0,1-2.451,0" transform="translate(-162.697 -183.764)" fill="#f7f7f7"/>
    <path id="Path_67" data-name="Path 67" d="M171.051,233.445h0a1.734,1.734,0,0,1,0-2.452l24.069-24.069a1.734,1.734,0,1,1,2.452,2.452L173.5,233.445a1.734,1.734,0,0,1-2.452,0" transform="translate(-162.697 -183.764)" fill="#f7f7f7"/>
    <path id="Path_68" data-name="Path 68" d="M192.669,202.022h0a1.733,1.733,0,0,1,0,2.451l-24.019,24.02a1.734,1.734,0,1,1-2.452-2.452l24.02-24.019a1.733,1.733,0,0,1,2.451,0" transform="translate(-162.697 -183.764)" fill="#f7f7f7"/>
    <path id="Path_69" data-name="Path 69" d="M163.979,211.1h0a1.733,1.733,0,0,1,0-2.451l24.377-24.378a1.734,1.734,0,1,1,2.452,2.452L166.43,211.1a1.733,1.733,0,0,1-2.451,0" transform="translate(-162.697 -183.764)" fill="#f7f7f7"/>
  </g>
</svg>
